<svg width="512" height="512" viewBox="0 0 512 512" fill="none" xmlns="http://www.w3.org/2000/svg">
<path d="M462.479 468.206L428.541 502.143C422.479 508.174 404.729 511.987 404.198 511.987C296.763 512.892 193.329 470.708 117.316 394.677C41.0848 318.46 -1.14824 214.619 0.0237575 106.872C0.0237575 106.809 3.91476 89.56 9.96176 83.56L43.8988 49.592C56.3518 37.155 80.1938 31.53 96.8968 37.092L104.053 39.498C120.756 45.06 138.208 63.497 142.833 80.465L159.926 143.182C164.566 160.182 158.332 184.368 145.895 196.805L123.208 219.492C145.458 301.959 210.127 366.613 292.547 388.894L315.234 366.206C327.672 353.768 351.921 347.55 368.921 352.175L431.639 369.3C448.576 373.894 467.013 391.33 472.607 408.048L474.982 415.204C480.54 431.926 474.916 455.769 462.479 468.206ZM287.984 255.993H319.983C319.983 220.65 291.328 191.995 255.985 191.995V223.994C273.624 223.994 287.984 238.368 287.984 255.993ZM415.98 255.993C415.98 167.62 344.357 95.997 255.985 95.997V127.997C326.576 127.997 383.981 185.433 383.981 255.993H415.98ZM255.985 0V31.999C379.481 31.999 479.978 132.496 479.978 255.993H511.977C511.977 114.622 397.356 0 255.985 0Z" fill="#A3C4FF" fill-opacity="0.5"/>
</svg>
