<svg width="119" height="117" viewBox="0 0 119 117" fill="none" xmlns="http://www.w3.org/2000/svg">
<path d="M112.454 6.43592C108.091 2.14558 102.835 0 96.6892 0H22.3127C16.1669 0 10.9106 2.14558 6.54604 6.43592C2.18229 10.7271 0 15.8947 0 21.9373V95.0619C0 101.104 2.18229 106.272 6.54604 110.563C10.9106 114.854 16.1669 117 22.3127 117H96.6884C102.834 117 108.09 114.854 112.453 110.563C116.818 106.272 119 101.104 119 95.0619V21.9373C119 15.8947 116.817 10.7263 112.454 6.43592ZM97.461 88.8095C96.3764 91.1451 93.936 93.1772 90.1405 94.9047C86.3441 96.6323 82.973 97.4959 80.0282 97.4959C79.2016 97.4959 78.3232 97.4332 77.3938 97.3062C76.4641 97.1784 75.6777 97.0522 75.0322 96.9252C74.3869 96.7982 73.5334 96.5701 72.4757 96.2395C71.416 95.9103 70.6535 95.6555 70.1903 95.4781C69.7241 95.3009 68.8725 94.9835 67.6338 94.5267C66.3939 94.0683 65.6184 93.789 65.3104 93.6895C56.8398 90.6408 48.5617 85.1445 40.4789 77.1978C32.3962 69.2491 26.8048 61.1121 23.7056 52.7854C23.603 52.4804 23.3189 51.7184 22.8535 50.5003C22.3889 49.2823 22.0652 48.4438 21.8845 47.9873C21.7048 47.5303 21.4462 46.7811 21.1103 45.7409C20.7746 44.6996 20.5429 43.8624 20.4134 43.2269C20.2837 42.5929 20.1556 41.819 20.0262 40.9047C19.897 39.9903 19.8327 39.1259 19.8327 38.3141C19.8327 35.4193 20.7111 32.106 22.4676 28.3735C24.2239 24.6416 26.2895 22.2423 28.6658 21.1756C31.4033 20.058 34.0116 19.4993 36.491 19.4993C37.0584 19.4993 37.4723 19.5506 37.7298 19.6519C37.9884 19.7547 38.4147 20.2106 39.009 21.0233C39.6033 21.8359 40.2486 22.8639 40.9457 24.1082C41.6431 25.3528 42.3275 26.559 42.9988 27.7265C43.6701 28.8943 44.316 30.049 44.936 31.1925C45.5558 32.3341 45.9431 33.0587 46.0977 33.3623C46.2527 33.6177 46.5886 34.0992 47.1048 34.8108C47.6209 35.5212 48.0092 36.1552 48.267 36.7144C48.5248 37.273 48.6542 37.8064 48.6542 38.3141C48.6542 39.0768 48.1243 40.0032 47.0657 41.0941C46.0066 42.1861 44.8443 43.1895 43.5787 44.1038C42.3131 45.0181 41.1514 45.9959 40.0925 47.037C39.0345 48.0772 38.5045 48.9278 38.5045 49.5881C38.5045 49.9437 38.5949 50.3623 38.7759 50.8447C38.9566 51.3281 39.1246 51.7216 39.2795 52.0258C39.4345 52.3302 39.6803 52.7622 40.0155 53.3214C40.3511 53.8806 40.5712 54.2357 40.6738 54.3883C43.5141 59.4155 46.7816 63.7448 50.4737 67.3762C54.1675 71.0081 58.57 74.219 63.6841 77.0121C63.838 77.1145 64.2002 77.3298 64.7706 77.6604C65.3381 77.9891 65.7782 78.2302 66.0876 78.3826C66.3977 78.5349 66.7969 78.7003 67.2883 78.8767C67.7798 79.0539 68.2058 79.1432 68.5689 79.1432C69.3927 79.1432 70.5295 78.306 71.9772 76.6305C73.423 74.9535 74.8959 73.2908 76.3939 71.6401C77.8907 69.991 79.1034 69.1658 80.035 69.1658C80.5511 69.1658 81.0925 69.292 81.6629 69.5458C82.2314 69.7995 82.8756 70.1813 83.5982 70.6887C84.3225 71.1983 84.8128 71.527 85.0712 71.6815L89.1755 73.8881C91.9133 75.3107 94.1987 76.567 96.0328 77.659C97.8669 78.751 98.8615 79.4997 99.0167 79.9052C99.1195 80.1589 99.1697 80.5663 99.1697 81.125C99.1678 83.5603 98.5993 86.125 97.461 88.8095Z" fill="black"/>
</svg>
