<svg width="102" height="116" viewBox="0 0 102 116" fill="none" xmlns="http://www.w3.org/2000/svg">
<path fill-rule="evenodd" clip-rule="evenodd" d="M3.73438 4.24707C6.12549 1.52759 9.36865 0 12.75 0H89.25C92.6313 0 95.8745 1.52759 98.2656 4.24707C100.657 6.96631 102 10.6543 102 14.5V101.5C102 105.346 100.657 109.034 98.2656 111.753C95.8745 114.472 92.6313 116 89.25 116H12.75C9.36865 116 6.12549 114.472 3.73438 111.753C1.34326 109.034 0 105.346 0 101.5V14.5C0 10.6543 1.34326 6.96631 3.73438 4.24707ZM93.7578 9.37354C92.5625 8.01392 90.9409 7.25 89.25 7.25H12.75C11.0591 7.25 9.4375 8.01392 8.24219 9.37354C7.04688 10.7332 6.375 12.5771 6.375 14.5V101.5C6.375 103.423 7.04688 105.267 8.24219 106.626C9.4375 107.986 11.0591 108.75 12.75 108.75V101.5C12.75 94.25 19.125 72.5 51 72.5C82.875 72.5 89.25 94.25 89.25 101.5V108.75C90.9409 108.75 92.5625 107.986 93.7578 106.626C94.9531 105.267 95.625 103.423 95.625 101.5V14.5C95.625 12.5771 94.9531 10.7332 93.7578 9.37354ZM64.5234 58.8795C68.1099 54.8007 70.125 49.2684 70.125 43.5C70.125 37.7316 68.1099 32.1993 64.5234 28.1205C60.937 24.0415 56.0723 21.75 51 21.75C45.9277 21.75 41.063 24.0415 37.4766 28.1205C33.8901 32.1993 31.875 37.7316 31.875 43.5C31.875 49.2684 33.8901 54.8007 37.4766 58.8795C41.063 62.9585 45.9277 65.25 51 65.25C56.0723 65.25 60.937 62.9585 64.5234 58.8795Z" fill="black"/>
</svg>
